<mxfile host="app.diagrams.net" modified="2024-04-26T09:21:06.209Z" agent="Mozilla/5.0 (Windows NT 10.0; Win64; x64; rv:125.0) Gecko/20100101 Firefox/125.0" etag="m5xW8PxkS4jGGr6Zsr9W" version="24.3.0" type="device">
  <diagram name="Side-1" id="E-_N748Gzy1lKybylq3K">
    <mxGraphModel dx="1012" dy="543" grid="1" gridSize="10" guides="1" tooltips="1" connect="1" arrows="1" fold="1" page="1" pageScale="1" pageWidth="827" pageHeight="1169" background="none" math="0" shadow="0">
      <root>
        <mxCell id="0" />
        <mxCell id="1" parent="0" />
        <mxCell id="Lb5uo0ajOj4ucuQkPa30-21" value="" style="rounded=1;whiteSpace=wrap;html=1;fillColor=none;opacity=80;glass=0;shadow=0;dashed=1;" parent="1" vertex="1">
          <mxGeometry x="450" y="160" width="270" height="210" as="geometry" />
        </mxCell>
        <mxCell id="Lb5uo0ajOj4ucuQkPa30-31" value="" style="edgeStyle=orthogonalEdgeStyle;rounded=0;orthogonalLoop=1;jettySize=auto;html=1;" parent="1" source="Lb5uo0ajOj4ucuQkPa30-23" target="Lb5uo0ajOj4ucuQkPa30-27" edge="1">
          <mxGeometry relative="1" as="geometry">
            <Array as="points">
              <mxPoint x="320" y="260" />
              <mxPoint x="320" y="300" />
            </Array>
          </mxGeometry>
        </mxCell>
        <mxCell id="Lb5uo0ajOj4ucuQkPa30-23" value="" style="rounded=1;whiteSpace=wrap;html=1;fillColor=none;opacity=80;glass=0;shadow=0;dashed=1;" parent="1" vertex="1">
          <mxGeometry x="40" y="160" width="270" height="210" as="geometry" />
        </mxCell>
        <mxCell id="Lb5uo0ajOj4ucuQkPa30-2" value="REST API" style="rounded=0;whiteSpace=wrap;html=1;" parent="1" vertex="1">
          <mxGeometry x="160" y="190" width="120" height="60" as="geometry" />
        </mxCell>
        <mxCell id="Lb5uo0ajOj4ucuQkPa30-3" value="&lt;div&gt;BLAZOR&lt;/div&gt;&lt;div&gt;Frontend&lt;/div&gt;" style="rounded=0;whiteSpace=wrap;html=1;" parent="1" vertex="1">
          <mxGeometry x="160" y="290" width="120" height="60" as="geometry" />
        </mxCell>
        <mxCell id="Lb5uo0ajOj4ucuQkPa30-5" value="" style="endArrow=classic;startArrow=classic;html=1;rounded=0;entryX=0.5;entryY=1;entryDx=0;entryDy=0;exitX=0.5;exitY=0;exitDx=0;exitDy=0;" parent="1" source="Lb5uo0ajOj4ucuQkPa30-3" target="Lb5uo0ajOj4ucuQkPa30-2" edge="1">
          <mxGeometry width="50" height="50" relative="1" as="geometry">
            <mxPoint x="210" y="310" as="sourcePoint" />
            <mxPoint x="260" y="260" as="targetPoint" />
          </mxGeometry>
        </mxCell>
        <mxCell id="Lb5uo0ajOj4ucuQkPa30-7" value="Database" style="shape=cylinder3;whiteSpace=wrap;html=1;boundedLbl=1;backgroundOutline=1;size=15;" parent="1" vertex="1">
          <mxGeometry x="640" y="180" width="60" height="80" as="geometry" />
        </mxCell>
        <mxCell id="UPKMlMCFKenlwiCJEdvP-3" style="edgeStyle=orthogonalEdgeStyle;rounded=0;orthogonalLoop=1;jettySize=auto;html=1;exitX=0.25;exitY=1;exitDx=0;exitDy=0;entryX=1;entryY=0.25;entryDx=0;entryDy=0;" edge="1" parent="1" source="Lb5uo0ajOj4ucuQkPa30-8" target="Lb5uo0ajOj4ucuQkPa30-27">
          <mxGeometry relative="1" as="geometry" />
        </mxCell>
        <mxCell id="UPKMlMCFKenlwiCJEdvP-8" value="" style="edgeStyle=orthogonalEdgeStyle;rounded=0;orthogonalLoop=1;jettySize=auto;html=1;" edge="1" parent="1" source="Lb5uo0ajOj4ucuQkPa30-8" target="Lb5uo0ajOj4ucuQkPa30-7">
          <mxGeometry relative="1" as="geometry" />
        </mxCell>
        <mxCell id="Lb5uo0ajOj4ucuQkPa30-8" value="&lt;div&gt;Catering&lt;/div&gt;&lt;div&gt;Data Processing&lt;br&gt;&lt;/div&gt;" style="rounded=0;whiteSpace=wrap;html=1;" parent="1" vertex="1">
          <mxGeometry x="480" y="190" width="120" height="60" as="geometry" />
        </mxCell>
        <mxCell id="UPKMlMCFKenlwiCJEdvP-5" style="edgeStyle=orthogonalEdgeStyle;rounded=0;orthogonalLoop=1;jettySize=auto;html=1;exitX=0;exitY=0.25;exitDx=0;exitDy=0;entryX=1;entryY=0.75;entryDx=0;entryDy=0;" edge="1" parent="1" source="Lb5uo0ajOj4ucuQkPa30-9" target="Lb5uo0ajOj4ucuQkPa30-27">
          <mxGeometry relative="1" as="geometry">
            <Array as="points">
              <mxPoint x="470" y="315" />
            </Array>
          </mxGeometry>
        </mxCell>
        <mxCell id="UPKMlMCFKenlwiCJEdvP-7" style="edgeStyle=orthogonalEdgeStyle;rounded=0;orthogonalLoop=1;jettySize=auto;html=1;exitX=0;exitY=0.75;exitDx=0;exitDy=0;entryX=1;entryY=0.75;entryDx=0;entryDy=0;startArrow=classic;startFill=1;jumpStyle=gap;" edge="1" parent="1" source="Lb5uo0ajOj4ucuQkPa30-9" target="Lb5uo0ajOj4ucuQkPa30-15">
          <mxGeometry relative="1" as="geometry">
            <Array as="points">
              <mxPoint x="460" y="335" />
              <mxPoint x="460" y="235" />
            </Array>
          </mxGeometry>
        </mxCell>
        <mxCell id="Lb5uo0ajOj4ucuQkPa30-9" value="REST API" style="rounded=0;whiteSpace=wrap;html=1;" parent="1" vertex="1">
          <mxGeometry x="480" y="290" width="120" height="60" as="geometry" />
        </mxCell>
        <mxCell id="Lb5uo0ajOj4ucuQkPa30-10" value="" style="endArrow=classic;startArrow=classic;html=1;rounded=0;" parent="1" edge="1">
          <mxGeometry width="50" height="50" relative="1" as="geometry">
            <mxPoint x="600" y="220" as="sourcePoint" />
            <mxPoint x="640" y="220" as="targetPoint" />
            <Array as="points" />
          </mxGeometry>
        </mxCell>
        <mxCell id="Lb5uo0ajOj4ucuQkPa30-12" value="" style="endArrow=none;dashed=1;html=1;dashPattern=1 3;strokeWidth=2;rounded=0;" parent="1" edge="1">
          <mxGeometry width="50" height="50" relative="1" as="geometry">
            <mxPoint x="380" y="400" as="sourcePoint" />
            <mxPoint x="380" y="120" as="targetPoint" />
            <Array as="points">
              <mxPoint x="380" y="290" />
            </Array>
          </mxGeometry>
        </mxCell>
        <mxCell id="Lb5uo0ajOj4ucuQkPa30-19" value="" style="edgeStyle=orthogonalEdgeStyle;rounded=0;orthogonalLoop=1;jettySize=auto;html=1;startArrow=classic;startFill=1;" parent="1" edge="1">
          <mxGeometry relative="1" as="geometry">
            <mxPoint x="120" y="219.76" as="sourcePoint" />
            <mxPoint x="160" y="219.76" as="targetPoint" />
          </mxGeometry>
        </mxCell>
        <mxCell id="Lb5uo0ajOj4ucuQkPa30-1" value="Database" style="shape=cylinder3;whiteSpace=wrap;html=1;boundedLbl=1;backgroundOutline=1;size=15;" parent="1" vertex="1">
          <mxGeometry x="60" y="180" width="60" height="80" as="geometry" />
        </mxCell>
        <mxCell id="Lb5uo0ajOj4ucuQkPa30-15" value="&lt;div&gt;Message &lt;br&gt;&lt;/div&gt;&lt;div&gt;Broker&lt;/div&gt;&lt;div&gt;RabbitMq&lt;br&gt;&lt;/div&gt;" style="rounded=1;whiteSpace=wrap;html=1;fillStyle=auto;gradientColor=none;" parent="1" vertex="1">
          <mxGeometry x="330" y="190" width="100" height="60" as="geometry" />
        </mxCell>
        <mxCell id="Lb5uo0ajOj4ucuQkPa30-17" value="" style="endArrow=classic;startArrow=classic;html=1;rounded=0;exitX=1;exitY=0.5;exitDx=0;exitDy=0;" parent="1" source="Lb5uo0ajOj4ucuQkPa30-2" edge="1">
          <mxGeometry width="50" height="50" relative="1" as="geometry">
            <mxPoint x="280" y="270" as="sourcePoint" />
            <mxPoint x="330" y="220" as="targetPoint" />
          </mxGeometry>
        </mxCell>
        <mxCell id="Lb5uo0ajOj4ucuQkPa30-18" value="" style="endArrow=classic;startArrow=classic;html=1;rounded=0;exitX=1;exitY=0.5;exitDx=0;exitDy=0;entryX=0;entryY=0.5;entryDx=0;entryDy=0;" parent="1" edge="1" target="Lb5uo0ajOj4ucuQkPa30-8">
          <mxGeometry width="50" height="50" relative="1" as="geometry">
            <mxPoint x="430" y="219.76" as="sourcePoint" />
            <mxPoint x="470" y="219.76" as="targetPoint" />
          </mxGeometry>
        </mxCell>
        <mxCell id="Lb5uo0ajOj4ucuQkPa30-24" value="User" style="text;html=1;align=center;verticalAlign=middle;whiteSpace=wrap;rounded=0;" parent="1" vertex="1">
          <mxGeometry x="140" y="120" width="60" height="30" as="geometry" />
        </mxCell>
        <mxCell id="Lb5uo0ajOj4ucuQkPa30-25" value="Catering" style="text;html=1;align=center;verticalAlign=middle;whiteSpace=wrap;rounded=0;" parent="1" vertex="1">
          <mxGeometry x="555" y="120" width="60" height="30" as="geometry" />
        </mxCell>
        <mxCell id="Lb5uo0ajOj4ucuQkPa30-27" value="Seq" style="shape=dataStorage;whiteSpace=wrap;html=1;fixedSize=1;" parent="1" vertex="1">
          <mxGeometry x="340" y="270" width="80" height="60" as="geometry" />
        </mxCell>
        <mxCell id="Lb5uo0ajOj4ucuQkPa30-36" value="" style="endArrow=none;html=1;rounded=0;entryX=0.75;entryY=1;entryDx=0;entryDy=0;" parent="1" edge="1" target="Lb5uo0ajOj4ucuQkPa30-2">
          <mxGeometry width="50" height="50" relative="1" as="geometry">
            <mxPoint x="280" y="260" as="sourcePoint" />
            <mxPoint x="280" y="250" as="targetPoint" />
            <Array as="points">
              <mxPoint x="310" y="260" />
              <mxPoint x="250" y="260" />
            </Array>
          </mxGeometry>
        </mxCell>
      </root>
    </mxGraphModel>
  </diagram>
</mxfile>
